<?xml version="1.0" encoding="UTF-8"?>
<svg id="_レイヤー_1" data-name="レイヤー 1" xmlns="http://www.w3.org/2000/svg" viewBox="0 0 867.4 867.4">
  <path d="M419.8,33.76c165.19-6.58,307.6,93.93,373.45,241.81,83.56,187.64,11.31,403.08-164.18,505.58-252.6,147.56-571.54-31.82-588.91-319.53C26.98,243.12,198.93,42.56,419.8,33.76ZM755.02,659.73c65.1-95.7,85.81-217.31,53.56-329.18-42.89-148.76-169.76-270.13-325.98-289.67C222.05,8.27,5.91,249.1,49.57,504.13c13.5,78.84,51.31,152.02,107.88,208.16,8.45-19.04,15.7-38.72,24.52-57.6,3.14-6.72,7.51-17.83,12.94-22.54,6.87-5.96,16.91-6.26,24.57-10.28-2.43-18.35-4.1-38.57,1.19-56.59,4.1-13.96,13.33-25.61,24.17-34.96,10.27-8.86,22.78-15.07,33.49-23.01,2.71-2.01,5.65-3.62,8.59-5.25-4.28-23.08-5.82-46.92-2.99-70.3,1.14-.16.62,1.5.65,2.29,1.15,33.87,4.35,67.14,14.46,99.55,1.74.16,1.06.03,1.3-.98,2.38-10.43,4.61-19.34,11.74-27.75-9.02-54.3-10.61-109.78-8.42-164.74.56-13.97,1.04-27.45,3.36-41.32.95-5.69,2.45-11.28,3.85-16.86,1.74-.27,1.31.32,1.33,1.66.07,3.71-1.21,8.64-1.37,12.44-.39,9.35-.35,21.01,11.74,21.49l.49,1.19c-.98,14.22-.79,28.59,3.76,42.21,6.25,18.71,36.15,57.7,53.08,67.81,25.51,15.24,55.86,2.16,79-11.57,33.68-19.99,43.44-38.54,56.32-74.44,5.69-15.85,10.81-32.01,14.76-48.38-5.49-6.1-8.14-18.62-16.75-20.28l1.31,1.64c-.84.95-2.38-.74-3.48-1.12-13.81-4.76-28.17-3.43-42.51-2.8-2.94.13-1.57-1.79-.29-3.59,4.94-6.94,10.81-4.24,18.27-4.55l15.52,3.53c-26.71-18.11-51.28-46.36-53.87-79.83l11.05,26.06c11.64,22.11,28.5,40.32,49.85,53.31,3.02,1.84,11.16,5.13,12.98,6.73,2.66,2.33,13.43,21,16,25.39,17.19,29.33,28.83,60.38,32.24,94.57.07.73.66,2.97-.56,2.86-5.78-14.35-7.66-29.88-12.17-44.67-4.89-16.03-13.63-36.65-23.17-50.39-.4-.57.11-1.22-1.46-.86-3.99,18.43-10.47,36.27-17.09,53.87,14.81.78,17.47-20.1,24.64-29.56.56,6.75-2.57,14.59-5.67,20.61-4.46,8.68-10.17,15.11-20.87,13.63-4.88,14.04-11.97,27.71-22.08,38.7-1.87,2.03-10.7,9.48-11.17,10.52-.56,1.23-.66,6.83-.02,7.88.4.65,4.85,2.5,6.27,3.59,4.87,3.74,10.91,13.07,15.13,15.75,4.74,3.02,31.68,10.8,37.18,10.83,1.74,0,5.6-1.93,7.98-2.41,10.58-2.1,20.94.38,30.7,4.43l-8.38-17.9c-1.38-4.4-2.21-8.94-2.97-13.47-.21-1.27.02-.79,1.16-.83,3.1,12.25,8.79,23.84,16.43,33.84l21.02,9.52c-15.84-25.75-18.46-56.02-17.08-85.73.86-18.43,5.1-36.75,5.93-55.17,2.45-53.94-18.57-128.1-51.96-170.83-10.6-13.56-34.07-36.8-52.25-37.17-2-.04-4.79,1.25-6.21.37-4.52-11.14-16.08-15.37-27.27-16.76-72.01-8.96-138.35,66.96-162.27,127.47-21.88,55.34-18.79,101.96-20.08,159.95-.79,35.57-4,71.58.11,107.04.43,3.74,1.17,7.55,1.9,11.25-1.11,1.38-2.57-2.08-2.97-2.95-9.55-21-4.18-80.1-3.64-105.48,1.28-60.07-2.35-110.43,19.25-168.01s78.67-126.88,146.03-133.87c17.88-1.85,41.79-.75,52,16.32,15.41-.37,29.84,8.96,40.97,18.82,43.23,38.29,68.86,118.96,70.94,175.45,1.29,35.01-8.92,68.86-5.9,104.46,1.27,14.92,9.67,50.2,21.71,59.76,2.5,1.99,11.6,5.15,15.52,7.48,39.95,23.68,57.56,80.9,72.66,122.16,20.22,10.62,37.16,27.65,46.13,48.81,2.2,5.2,3.15,10.35,4.98,15.39.25.7.31,1.57,1.28,1.67ZM318.67,321.42c-4.45-.64-7.08-3.41-9.77-6.64-1.08,9.5-1,19.04-1.33,28.57-1.35,39.2-1.11,79.17,2.64,118.27,1.02,10.65,3.02,21.22,3.94,31.87l5.41-.83,18.63-24.74,11.41-12.8-11.3-63.63c-15.56-20.35-22.93-44.3-19.62-70.08ZM476.44,412.03c-.98-.23-1.55.22-2.34.61-5.51,2.73-12.11,8.28-18.01,11.55-19.04,10.55-43.18,20.29-65.2,14.58-20.65-5.36-33.4-23.97-46.5-39.23l19.05,112.02-9.2-29.89c-3.97,19.56-8.5,39.06-11.08,58.9-3.01,23.1-3.97,46.31-4.67,69.58-.78,25.99-4.15,74.14,15.71,93.96,3.99,3.98,5.26,3.12,9.83.57,8.12-4.51,13.48-11.42,18.32-19.13,1.82-2.9,11.85-19.39,12.35-21.22s-.67-9.72-.42-12.84c.5-6.24,2.79-11.67,8.58-14.57-.71-10.48.02-22.38,12.2-25.13-.84-6.87-1.11-15.45,4.53-20.42,1.87-1.65,3.91-1.97,5.5-3.7.78-16.86,6.25-33.87,11.1-50,5.76-19.17,12.35-37.49,20.43-55.79,7.84-17.78,19.62-34.68,19.8-54.39.05-5.15-.07-10.34.03-15.46ZM481.04,422.86c.08,4.37,0,8.76,0,13.14,0,9.3-15.97,38.25-20.48,48.51-11.97,27.16-20.79,55.44-28.14,84.21,2.93-.85,5.71-2.11,8.85-2.31,13.86-.91,18.7,10.91,28.6,17.76,3.64-12.71,7.44-25.42,11.66-37.96,3.15-9.36,8.45-19.99,10.89-29.19,3.98-15.02,9.9-55.69,8.28-70.43-.86-7.82-10.3-18.1-16.35-23.08-.45-.37-2.78-2.27-2.97-2.28-1.61-.08-.33,1.55-.33,1.63ZM533.6,449.48l-29.57-7.88c4.1,18.58-2.02,37.92-3.94,56.5l9.08-17.52c6.36-11.75,14.11-22.52,24.42-31.09ZM598.65,461.31c-21.34-7.22-43.58-22.84-64.71-5.91-23.28,18.65-43.85,78.63-52.92,107.4-2,6.35-6.21,17.13-7.08,23.18-.18,1.29-.38,2.01.48,3.16,1.22,1.64,9.38,7.08,11.67,8.7,5.13,3.62,10.99,7.37,16.44,10.5,2.7,1.55,9.5,5.81,12.02,6.44s3.71-3.78,4.43-5.49c12.36-29.53,21.69-60.38,34.87-89.96,7.58-17.01,21.74-50.98,40.82-56.42,1.64-.47,4.5.49,3.98-1.6ZM350.94,461.3c-.84-.97-5.91,5.48-6.55,6.26-9.77,11.82-18.01,25.5-27.51,37.59l7.12,31.06c-5.94-7.3-7.47-17.02-10.84-25.62-6.36,9.85-8.41,21.15-10.09,32.61-4.52,30.88-6.77,62.32-11.79,93.07,4.4,4.34,5.53,9.99,3.85,15.94-.48,1.68-2.37,4.05-2.49,5.32-.23,2.32,2.38,5.46,1.64,10.26-.48,3.13-4.21,8.2-4.25,8.69-.09,1.12,2.3,5.38,1.72,9.81-.46,3.53-4.31,8.1-4.35,8.59-.09,1.06,2.23,4.48,1.72,8.49-.96,7.57-7.52,9.91-13.75,12.03-6.29,22-8.42,43.42-3.73,66,.55,2.63,2.05,9.99,3.2,11.91,1.36,2.25,19.6,9.34,23.36,10.8,59.26,23.11,123.79,30.59,187,22.41,10.5-1.36,20.85-3.63,31.31-5.17,1.22-1.18-12.66-27.57-14.34-30.66-4.76-8.72-10.02-17.58-15.61-25.78-20.28-29.76-52.14-52.72-76.51-79.21-4.64-5.04-9.24-10.25-12.8-16.11-1.33-.27-.8.33-1.11.84-7.85,12.77-12.81,26.44-25.55,35.56-9.27,6.63-14,8.47-21.9-.98-12.5-14.95-13.92-35.6-14.84-54.15-2.68-53.52,2.62-109.56,14.25-161.85,1.04-4.68,3.57-11.2,4.1-15.61.5-4.13-1.28-8.02-1.26-12.1ZM626.91,776.68c.91.17,1.63-.18,2.44-.51,12.59-5.22,37.84-25.13,49.12-34.33,17.07-13.93,33.21-29.45,47.51-46.16-13.52-53.68-26.63-108.27-50.54-158.4-13.22-27.71-28.17-53.78-57.75-66.43-8.8-3.76-16.85-6.52-25.95-1.68-17.33,9.22-35.07,55.1-42.67,73.63-8.19,19.95-15.83,40.2-22.73,60.63,7.33,5.4,15.62,9.64,16.49,19.81.58,6.71-.09,15.5-.76,22.28-.26,2.57-2.37,9.83-1.58,11.56,12.1,14.31,24.58,28.83,41.95,36.93,1.48.69,19.6,7.77,19.51,5.46-4.94-17.27-8.11-35.76-14.45-52.57-3.92-10.39-14.96-25.9-16.97-34.94-.68-3.06,1.5-.88,2.48.15,9.1,9.62,18.03,30.38,22.03,43.02,12.55,39.68,18.95,81.88,31.87,121.55ZM288.52,507.29c-8.27,1.37-13,11.1-16.54,17.95-14.04,27.24-20.49,59.66-26.83,89.47,3.74.08,7.8-1.69,11.51-1.69,12.16.02,21.11,12.01,30.22,18.46l12.75-94.99c-5.43-8.93-9.59-18.79-11.1-29.2ZM270.13,519.13c-.3-.28-5.07,2.53-5.86,3-21.19,12.69-39.92,32-42.02,57.85l-.73,18.31,1.97,22.67,17.01-4.67c5.76-33.41,13.98-66.99,29.64-97.17ZM613.76,785.21c.44-.59-1.51-2.97-1.99-3.59-21.62-27.84-48.34-51.9-71.28-78.53-16.63-19.3-10.62-21.61-5.78-43.91,2.31-10.65,4.95-26.49,3.43-37.19-.91-6.45-9.02-10.32-13.41-14.17-3.94,6.93-3.16,14.25-13.26,10.62-11.73-4.21-34.08-20.16-43.58-28.7-5.56-5-15.09-17.37-22.16-18.58-10.59-1.8-17.22,5.22-15.95,15.62.47.47,8.55-1.17,7.89,1.63-.49,2.05-10.73,3.64-12.95,4.8-7.4,3.87-5.6,14.5-4.84,21.4-.33,1-5.59,2.01-7.41,3.15-7.11,4.49-5.45,14.84-5.46,22.07-3.91,1.88-6.89,4.11-7.83,8.66-2.4,11.67,1.61,19.52,8.89,27.98,27.47,31.9,63,55.41,86.36,91.7,10.37,16.11,19.04,33.31,26.64,50.9,1.51,1.04,15.14-3.06,17.91-3.83,25.98-7.31,50.71-18.01,74.76-30.05ZM729.4,691.26c.65.69,3.99-3.59,4.58-4.28,3.69-4.33,13.44-15.97,15.69-20.44,1.44-2.86.5-4.18-.1-6.95-5.28-24.47-23.25-46.4-44.48-59l24.31,90.67ZM289.83,653.81c5.62-10.58-4.68-17.83-11.81-23.99-14.44-12.47-16.47-14.22-35.77-9.46-8.97,2.21-37.57,9.88-43.76,14.71-6.76,5.28-17.76,33.31-21.78,42.61-5.43,12.57-10.58,25.33-15.57,38.09,9.22,9.18,19.01,17.94,29.17,26.08,4.61,3.69,12.36,10.37,17.18,13.07.86.48,1.07.81,2.15.43,1.58-.55,7.55-6.61,8.92-8.22,5.33-6.27,8.63-15.4,15.22-20.26,4.13-3.04,11.56-5.86,16.47-7.85,8.84-3.58,21.59-6.14,29.34-10.09,4.14-2.11,7.75-9.03,3.66-12.04-.83-.61-10.95-3.55-12.18-3.58-7.69-.24-23.99,6.98-33.54,7.76-1.39.11-2.56.44-3.51-.92.05-1.04,11.42-4.52,13.28-5.1,6.8-2.13,19.75-6.53,26.4-5.68,3.09.39,7.96,3.49,10.6,1.96,3.59-2.08,4.27-8.68,2.19-12.12-.88-1.45-11.54-9.1-13.5-10.15-1.58-.85-3.21-1.44-5.05-1.37-10.32.39-24.68,6.98-35.61,7.83-.76.06-1.52.04-2.27,0l.05-1.91c10.08-2.45,33.1-12.5,42.69-9.62,2.86.86,12.06,8.91,13.44,8.93,3.6.04,3.94-8.46,3.17-11.08-1.14-3.91-13.3-13.98-17.09-16.42-4.87-3.14-6.86-3.85-12.84-3.23-11.31,1.18-23.78,6.83-35.07,8.29-.75.1-5.9.5-4.2-1.23,11.1-4.22,23.59-9.01,35.33-11,17.52-2.98,21.62,6.49,34.31,15.59ZM584.11,741.11c.11-.06.52-1.35,1.03-1.89,1.16-1.21,7.37-6.53,7.51-7.02,1.24-4.44-6.34-14.73-9.13-18.25-8.1-10.21-18.02-19.96-26.6-29.9-6.08-7.05-11.95-14.4-17.73-21.69-.8.37-4.65,14.91-4.86,16.82-.83,7.59,1.69,11.12,6.16,16.69,9.22,11.48,22,23.18,32.21,34.15,1.58,1.7,8.84,10.7,9.97,11.08.46.16.98.27,1.44,0ZM611.12,737.92l-7.86-32.54c-4.67-1.44-9.5-2.06-14.17-3.57-5.61-1.82-10.74-4.82-16.07-7.24,8.25,11.27,21.14,20.17,23.71,34.75,6.92-.87,10.23,4.24,14.39,8.6ZM270.12,716.89l-26.33,9.59c-1.14,4.26,9.46,27.06,12.26,31.75,1.2,2.02,6.87,10.52,8.5,11.22,1.48.64.75-.8.69-1.35-.79-8.06-1.16-15.18-.37-23.28.92-9.43,3.44-18.67,5.25-27.93ZM237.27,774.05v-44.02c-6.26,3.63-8.64,11.33-12.87,17.03-2.83,3.8-6.48,7.75-10.35,10.52l-.46,1.66,23.68,14.81ZM597.81,734.09c-2.59.76-8.6,8.79-11.49,10.72l18.48,20.66c7.1-8.19,14.64-8.41,6.6-19.61-2.32-3.23-9.45-12.98-13.59-11.77ZM241.22,737.26v39.09l28.26,14.45-3.45-15.28c-13.29-7.49-17.71-23.05-23.32-36.14-.35-.81-.35-1.94-1.49-2.12ZM617.7,760.26c-1-.27-1.09.26-1.65.65-1.16.8-8.27,8.14-8.16,8.79,2.11,1.66,9.09,12.21,10.78,12.23,1.09.02,4.29-1.58,4.32-2.95l-5.29-18.72Z"/>
  <path d="M428.47,141.98c-4.73,25.87,6.04,50.96,18.94,72.71l21.13,31.75c-13.06-10.01-23.59-25.51-31.22-40.07-9.18-17.5-11.62-28.3-14.11-47.66-.1-.77.27-1.31-.96-.95-1.13.33-4.97,2.82-6.21,3.66-10.6,7.13-19.41,18.72-26.88,28.97-20.25,27.81-36.86,59.22-63.24,81.97l-4.56,24.68c-1.61.21-1.04-.01-1.37-.92-2.25-6.11-1.06-12.57.06-18.79-.53-.52-4.35,3.06-3.95.32l9.86-28.58c-11.58,11.71-22.4,24.34-29.02,39.64-4.4,10.16-6.1,19.34-7.97,30.14-.14.81-.12,3.18-1.1,3.16-2.78-23.54,8.52-46.24,23.31-63.74,6.51-7.7,15.25-14.84,21.35-22.67,3.46-4.44,6.32-11.07,9.6-16.02,3.95-5.97,8.39-11.72,13.09-17.14.98.51-.15,1.58-.47,2.16-10.11,18.15-21.47,36.56-28.61,56.15-.82,2.24-2.15,5-1.81,7.39,23.43-21.83,39.28-49.9,57.62-75.76,9.38-13.23,19.97-27.67,33.85-36.46,1.61-1.02,6.67-2.88,7.43-3.74.39-.44,3.21-12.46,5.24-10.19Z"/>
  <path d="M369.78,350.32c1.91-.63,4.95,2.81,7.29,3.71,6.54,2.51,15.47,2.64,22.51,4.43,5.78,1.47,11.53,4.74,17.04,5.96,4.31.95,9.03,1.09,13.59,2.18,5.19,1.24,12.21,4.73,17.06,5.29,2.6.3,6.12-1.42,7.55.33,1.28,1.56.41,2.76-1.22,3.49-9.75,4.4-28,8.26-38.58,7.39-19.49-1.61-31.79-16.99-45.69-28.56-1.44-1.07-1.28-3.64.45-4.21ZM442.27,374.58c-9.07-3.96-19.11-4.4-28.39-6.77-10.68-2.73-21.07-8.19-32.71-8.34,15.04,16.55,31.47,23.83,53.88,18.07,2.12-.55,5.82-1.44,7.22-2.96Z"/>
  <path d="M408.76,285.21c-3.84-.09-2.39-2.29-3.11-3.72-1.77-3.55-4.2-6.11-7.08-8.76-1.53,10.78-6.62,11.25-15.79,7.9-6.48-2.37-6.12-7.79-2.93-13.16-4.02-.54-7.47,1.04-11.17,2.29-1.11.81-.34.7-.02,1.33.74,1.47,2.15,2.78,3.31,3.93.1.5-.64.42-.97.32-2.02-.65-12.76-9.58-11.5-11.16l5.25.65-2.63-3.27,6.57,1.31-1.31-3.28,5.61,1.84.97-3.16c3.34,3.53,8.03,2.55,12.61,3.48,11.75,2.38,22.25,10.52,22.2,23.46ZM394.77,272.83c0-1.39-1.13-2.52-2.52-2.52s-2.52,1.13-2.52,2.52,1.13,2.52,2.52,2.52,2.52-1.13,2.52-2.52Z"/>
  <path d="M528.34,262.21c-1.78-.41-3.72-1.93-5.2-3.01-33.83-24.73-50.19-71.23-64.64-108.82l-9-14.32c7.75,3.09,12.15,11.82,15.41,19.08,5.18,11.51,8.83,24.24,14.03,35.9,11.92,26.7,28.92,50.4,49.39,71.17Z"/>
  <path d="M500.09,290.47l-1.31,3.28h5.25s-1.97,2.3-1.97,2.3l4.61,1.31c1.83,1.83-3.56,1.29-1.98,2.96.68.72,4.21-.14,3.93,1.64-.63.83-1.52,1.15-2.47,1.48-2.29.79-8.65,2.38-11.07,2.73-.72.1-3.55.65-3.54-.58,2.43-.23,4.98-1,6.56-2.96l-8.21-7.55c-1.22,9.62-4.5,11.44-13.46,8.86-7.59-2.19-8.65-5.58-5.26-12.8-.97-.7-9.58,2.3-10.78,3.34-2.1,1.81.54,3.33-4.33,1.9,4.69-10.34,18.95-11.74,28.93-9.54,5.59,1.23,9.43,5.2,15.09,3.64ZM486.19,295.39c0-1.31-1.07-2.38-2.38-2.38s-2.38,1.07-2.38,2.38,1.07,2.38,2.38,2.38,2.38-1.07,2.38-2.38Z"/>
  <path d="M423.85,128.22l.03,1.92c-34.97,9.69-60.74,36.94-84.1,63.09.57-2.48,2.29-5.04,3.67-7.17,12.89-19.93,42.18-46.39,64.22-55.36,4.89-1.99,10.93-4.22,16.19-2.48Z"/>
  <path d="M573.02,318.06c-.95.13-1-1.78-1.12-2.48-1.61-9.47-2.64-19.06-4.34-28.52-5.4-30.18-12.93-59.81-23.44-88.58,2.62,3.17,4.71,7.77,6.47,11.59,6.55,14.22,11.18,29.79,14.76,45.03,4.82,20.57,7.81,41.78,7.67,62.95Z"/>
  <path d="M519.8,210.31c-1.01-.16-1.24-1.22-1.63-1.98-9.8-19.26-17.22-41.29-31.24-58.12-9.41-11.3-15.66-14.17-28.63-20-.78-.35-1.18.31-.92-1.37,3.34-1.08,5.34-.49,8.54.33,28.61,7.36,46.19,55.75,53.88,81.14Z"/>
  <path d="M414.01,258.27c-.76.55-13.15-7.22-15.09-8.23-14.07-7.3-20.94-10.53-37.3-7.69-1.31.23-1.17-.81-.82-1.16.32-.32,7.49-2.72,8.54-2.97,10.82-2.64,21.12-.64,31.12,3.71,7.07,3.08,16.93,6.87,13.56,16.33Z"/>
  <path d="M546.08,437.65c-5.13-3.65-8.08-10.21-9.81-16.14-5.97-20.5-2.75-45.17,3.25-65.33l.68,5.61c-3.73,25.55-5.11,51.85,5.88,75.86Z"/>
  <path d="M438.33,161.36c.04.63,1.11,1.84.65,2.96-.87,1.16-2.96-7.49-3.11-8.38-3.36-20.13,9.54-46.81,33.22-41.11,1.42.34,7.92,4.15,4.39,4.15h-10.51c-12.99,0-24.64,18.05-24.64,29.9,0,4.05-.27,8.51,0,12.48Z"/>
  <path d="M573.02,369.97l-9.24-42.32-11.11-37.17,4.05,7.44c9.31,22.71,17.48,47.13,16.31,72.06Z"/>
  <path d="M513.89,144.6l-25.62-18.38c10.88.63,20.08,9.7,25.62,18.38Z"/>
  <path d="M444.24,343.69c-1.97,7.26-9.99,4.7-15.45,3.95-.98-.13-1.64.02-2.27-1,5.84-5.95,11.21.4,17.72-2.95Z"/>
  <path d="M414.01,341.71c-4.93-2.19-10.92-2.09-13.14-7.87,5.24.72,11.84,1.89,13.14,7.87Z"/>
  <path d="M325.31,464.58l-4.58-41.72-1.31-48.28c1.44.93,1.63,4.57,1.88,6.32,3.51,24.89,3.62,51.68,4,76.82.04,2.37,1.37,4.36.02,6.87Z"/>
</svg>